# xmcd
# Track frame offsets:
# 150
# 19166
# 34159
# 57548
# 74236
# 94266
# 113031
# 130467
# 145953
# 162135
# 179262
# 192634
# 207901
# 226346
#
# Disc length: 3280 seconds
# Revision: 0
# Processed by: cddbd v1.5PL3 Copyright (c) Steve Scherf et al.
# Submitted via: VisiTrax 2.9.9.202 - For more info visit www.synapsa.com
#
DISCID=d70cce0e
DTITLE=Various Artist - Washington's golden Delicious Music Series - Volume 1 Rhyth
DTITLE=m and Blues
DYEAR=2002
DGENRE=R and B
TTITLE0=The Duffy Bishop Band - Hey Linda
TTITLE1=Jr. Cadillac - Sweet Cucumber
TTITLE2=Tim Casey and the the Bluescats - Rock the Blues
TTITLE3=The Main Attraction - I'll Be Whatever You Want Me To Be
TTITLE4=Freddy Pink - Roll It Out
TTITLE5=The Duffy Bishop Band - Take Me Down
TTITLE6=Jr. Cadillac - Watching You Dance
TTITLE7=Tim Casey and the Bluescats - Rampage
TTITLE8=The Main Attraction - Sweet Harmony
TTITLE9=Freddy Pink - Lay Your Burden Down
TTITLE10=The Duffy Bishop Band - Come On Out
TTITLE11=Jr. Cadillac - I'll Mine Some Gold
TTITLE12=Tim Casey and the Bluescats - Trouble
TTITLE13=Freddy Pink - You Were There
EXTD=Crossound Records
EXTT0=
EXTT1=
EXTT2=
EXTT3=
EXTT4=
EXTT5=
EXTT6=
EXTT7=
EXTT8=
EXTT9=
EXTT10=
EXTT11=
EXTT12=
EXTT13=
PLAYORDER=
